# xmcd
#
# Track frame offsets:
#	150
#	19975
#	39406
#	56039
#	72535
#	94137
#	108550
#	126843
#	141217
#	158804
#	174983
#
# Disc length: 2606 seconds
#
# Revision: 1
# Processed by: cddbd v1.5.2PL0 Copyright (c) Steve Scherf et al.
# Submitted via: audiograbber 1.83.01
#
DISCID=9b0a2c0b
DTITLE=Cody Jinks - Cast No Stones
DYEAR=2008
DGENRE=Country
TTITLE0=Cast No Stones
TTITLE1=Doin OK (The Mama Song)
TTITLE2=Will You Still Love Me
TTITLE3=Mr. Griffin
TTITLE4=The Fast Lane
TTITLE5=Pretty Packaging
TTITLE6=No Words
TTITLE7=The Wrong Place
TTITLE8=Without Saying A Word
TTITLE9=See The Man
TTITLE10=When The New Wears Off
EXTD=
EXTT0=
EXTT1=
EXTT2=
EXTT3=
EXTT4=
EXTT5=
EXTT6=
EXTT7=
EXTT8=
EXTT9=
EXTT10=
PLAYORDER=
